<svg width="50" height="41" viewBox="0 0 50 41" fill="none" xmlns="http://www.w3.org/2000/svg">
<path d="M44.1598 19.4375L16.6164 5.68747C16.3845 5.57071 16.1187 5.50657 15.8464 5.50165C15.574 5.49673 15.305 5.55122 15.067 5.65949C14.829 5.76776 14.6308 5.9259 14.4926 6.11759C14.3545 6.30928 14.2816 6.52758 14.2812 6.74997V34.25C14.2816 34.4724 14.3545 34.6907 14.4926 34.8823C14.6308 35.074 14.829 35.2322 15.067 35.3404C15.305 35.4487 15.574 35.5032 15.8464 35.4983C16.1187 35.4934 16.3845 35.4292 16.6164 35.3125L44.1598 21.5625C44.3859 21.4533 44.5733 21.2979 44.7035 21.1116C44.8337 20.9253 44.9022 20.7145 44.9022 20.5C44.9022 20.2855 44.8337 20.0747 44.7035 19.8884C44.5733 19.7021 44.3859 19.5466 44.1598 19.4375Z" fill="#B9E5A9" stroke="black" stroke-width="5" stroke-linecap="round" stroke-linejoin="round"/>
</svg>
